Coordinates
version=1
nRows=16
nColumns=40
inDegrees=yes

Units are S.I. units (second, meters, Newtons, ...)
If the header above contains a line with 'inDegrees', this indicates whether rotational values are in degrees (yes) or radians (no).

endheader
time	pelvis_tilt	pelvis_list	pelvis_rotation	pelvis_tx	pelvis_ty	pelvis_tz	hip_flexion_r	hip_adduction_r	hip_rotation_r	knee_angle_r	knee_angle_r_beta	ankle_angle_r	subtalar_angle_r	mtp_angle_r	hip_flexion_l	hip_adduction_l	hip_rotation_l	knee_angle_l	knee_angle_l_beta	ankle_angle_l	subtalar_angle_l	mtp_angle_l	lumbar_extension	lumbar_bending	lumbar_rotation	arm_flex_r	arm_add_r	arm_rot_r	elbow_flex_r	pro_sup_r	wrist_flex_r	wrist_dev_r	arm_flex_l	arm_add_l	arm_rot_l	elbow_flex_l	pro_sup_l	wrist_flex_l	wrist_dev_l
      0.00000000	      4.92956733	      1.57120479	    -10.55028371	      0.05715340	      1.30816280	      0.01225058	     65.86171410	    -21.27583568	     -2.69445588	     83.15560795	      1.45133915	      3.90057681	    -19.27089049	      0.00000000	     27.91508294	    -23.21473931	    -20.14665188	     59.50936773	      1.03863440	    -10.75639382	      5.91277934	      0.00000000	    -57.23242540	     -0.92570674	     -4.27673461	     57.86264977	    -11.69392334	    -20.12827921	     40.92288481	     87.33578970	      0.00000000	      0.00000000	     63.57471041	     -1.84253639	    -23.26484103	     43.65240999	     87.51496931	      0.00000000	      0.00000000
      0.01700000	      5.86221496	      2.46228951	     -9.91854587	      0.05641888	      1.30964507	      0.01328500	     61.09524747	    -22.22982080	     -4.00008805	     76.32475285	      1.33211824	      2.42093543	    -19.23833213	      0.00000000	     30.42608959	    -22.64947541	    -16.34932785	     66.13337131	      1.15424507	     -8.93747970	      5.27609127	      0.00000000	    -57.80209489	     -1.27135814	     -5.46014400	     57.55142279	    -11.70289157	    -20.41130387	     40.84102999	     87.26625153	      0.00000000	      0.00000000	     63.56577895	     -1.82938153	    -22.99229536	     43.55557067	     87.51293897	      0.00000000	      0.00000000
      0.03300000	      6.72643529	      3.40744693	     -9.37445448	      0.05576065	      1.31075981	      0.01429159	     56.33218730	    -23.09456335	     -5.38692254	     69.14512806	      1.20681015	      0.40163151	    -19.06404183	      0.00000000	     32.85658636	    -21.87719135	    -12.90981173	     72.51596577	      1.26564236	     -7.59072740	      4.70503987	      0.00000000	    -58.27342691	     -1.68315284	     -6.64748553	     57.25700699	    -11.74641119	    -20.55203206	     40.67937478	     87.20929718	      0.00000000	      0.00000000	     63.49059660	     -1.84077615	    -22.68453934	     43.49844923	     87.48342802	      0.00000000	      0.00000000
      0.05000000	      7.36856611	      4.39715708	     -8.49778816	      0.05513269	      1.31160809	      0.01472817	     51.33931689	    -24.14979965	     -7.39322096	     62.32753048	      1.08782062	     -1.85643999	    -18.65992322	      0.00000000	     35.93936275	    -21.02676819	     -9.73784219	     78.56981168	      1.37130191	     -6.63483615	      4.68555171	      0.00000000	    -58.61631286	     -1.85318786	     -7.97445764	     56.92496247	    -11.90951778	    -20.68407432	     40.57107903	     87.26384206	      0.00000000	      0.00000000	     63.37116307	     -1.67509414	    -22.45518455	     43.63538892	     87.53775504	      0.00000000	      0.00000000
      0.06700000	      7.77851700	      5.56816375	     -7.51320723	      0.05435481	      1.31214325	      0.01500651	     45.95779012	    -25.12382027	    -10.03950967	     56.01245352	      0.97760174	     -3.99418037	    -18.16010320	      0.00000000	     39.93576417	    -20.30275942	     -7.12561480	     84.64064751	      1.47725798	     -5.54822347	      4.85196976	      0.00000000	    -58.85987989	     -2.13915191	     -9.31206878	     56.40938375	    -12.34917917	    -20.99920830	     40.65818506	     87.19284924	      0.00000000	      0.00000000	     63.32001186	     -1.18114621	    -22.12860604	     43.91152555	     87.49648339	      0.00000000	      0.00000000
      0.08300000	      7.94551235	      6.52783961	     -5.87194181	      0.05368463	      1.31237537	      0.01448140	     39.94928249	    -26.08227392	    -14.10768234	     49.91507155	      0.87118234	     -6.03853326	    -17.61392698	      0.00000000	     44.86760783	    -19.48037248	     -4.18796937	     90.32337242	      1.57644024	     -4.98156210	      5.68831236	      0.00000000	    -58.97038452	     -1.76441727	    -10.76246057	     55.91795501	    -12.84241474	    -21.26453815	     40.69287728	     87.24712761	      0.00000000	      0.00000000	     63.19599347	     -0.51095207	    -21.95199971	     44.33936294	     87.55094149	      0.00000000	      0.00000000
      0.10000000	      7.88431964	      7.38936841	     -4.47610532	      0.05327454	      1.31207480	      0.01400474	     34.68259637	    -26.54360478	    -17.92462178	     44.63113013	      0.77896017	     -8.70506294	    -16.89864190	      0.00000000	     49.66658526	    -18.76696862	     -2.11666496	     94.76037788	      1.65388059	     -4.06291022	      6.59773435	      0.00000000	    -58.88411207	     -1.49461082	    -12.03550549	     55.48511574	    -13.24800890	    -21.47119067	     40.64023763	     87.26678472	      0.00000000	      0.00000000	     63.14830646	      0.02180648	    -21.78387970	     44.53840638	     87.57565405	      0.00000000	      0.00000000
      0.11700000	      7.49843241	      7.95110464	     -3.29342852	      0.05313826	      1.31139969	      0.01336541	     30.35672695	    -26.53517874	    -21.42558325	     40.35122750	      0.70426178	    -12.01102989	    -16.19096852	      0.00000000	     54.43048763	    -18.32832096	     -0.85984228	     97.68406656	      1.70490859	     -2.63460324	      7.50509035	      0.00000000	    -58.53716234	     -1.13239183	    -13.05204740	     55.29652737	    -13.43920914	    -21.50717325	     40.35009964	     87.23019374	      0.00000000	      0.00000000	     63.25796336	      0.30310852	    -21.70728692	     44.32906836	     87.55473529	      0.00000000	      0.00000000
      0.13300000	      7.04636608	      8.11539500	     -2.03246802	      0.05326733	      1.31071923	      0.01251883	     26.35696647	    -26.14661300	    -25.06574878	     37.03854501	      0.64644456	    -15.24957667	    -15.45133612	      0.00000000	     59.12491056	    -17.98572128	      0.06174055	     99.42605152	      1.73531196	     -1.06569763	      8.46680589	      0.00000000	    -58.17810401	     -0.41758336	    -13.89646448	     55.29180354	    -13.50847113	    -21.34956419	     39.89107270	     87.21428795	      0.00000000	      0.00000000	     63.42885817	      0.44544323	    -21.79604879	     43.96887084	     87.54864967	      0.00000000	      0.00000000
      0.15000000	      6.68351698	      8.32421043	     -1.22276254	      0.05350760	      1.31003087	      0.01205406	     23.52775391	    -25.76129828	    -27.55999188	     35.40389209	      0.61791448	    -17.90398083	    -15.06693609	      0.00000000	     62.87363422	    -17.66258085	      0.11588608	    100.15653923	      1.74806138	      0.77509131	      9.19663932	      0.00000000	    -57.87387492	     -0.04129865	    -14.53325531	     55.26571721	    -13.58098669	    -21.17894700	     39.53973200	     87.21766645	      0.00000000	      0.00000000	     63.53759326	      0.51720749	    -21.81211534	     43.66559574	     87.56940994	      0.00000000	      0.00000000
      0.16700000	      6.48050867	      8.70198702	     -0.90903297	      0.05378736	      1.30948592	      0.01206491	     21.96210067	    -25.63872425	    -28.49777976	     35.78288532	      0.62452916	    -19.56184524	    -15.26109079	      0.00000000	     65.44547820	    -17.28264017	     -0.68811506	    100.05518635	      1.74629244	      3.37324137	      9.62332586	      0.00000000	    -57.68092314	     -0.09609187	    -14.99420079	     55.20500069	    -13.70014924	    -21.04088863	     39.29585400	     87.08814751	      0.00000000	      0.00000000	     63.59838114	      0.52831495	    -21.65577535	     43.36909964	     87.47079718	      0.00000000	      0.00000000
      0.18300000	      6.46790176	      8.87859001	     -0.59641910	      0.05416819	      1.30944015	      0.01204524	     20.97632202	    -25.63589682	    -29.04273020	     37.81023088	      0.65991302	    -20.44670704	    -16.26111298	      0.00000000	     67.10993673	    -16.78683744	     -1.77890533	     99.00420721	      1.72794939	      6.13724831	      9.96580883	      0.00000000	    -57.68802748	      0.07467740	    -15.29563854	     55.17893134	    -13.82484793	    -20.79896195	     39.14978125	     87.03663357	      0.00000000	      0.00000000	     63.58896931	      0.42250829	    -21.41752153	     43.16568486	     87.43804156	      0.00000000	      0.00000000
      0.20000000	      6.54759776	      9.02685085	     -0.57024793	      0.05451943	      1.30976825	      0.01197212	     20.92759438	    -25.89356740	    -28.71888955	     41.25347919	      0.72000904	    -20.66042766	    -17.28118448	      0.00000000	     67.66725923	    -16.40819121	     -3.42034031	     96.77352168	      1.68901658	      8.02970760	      9.84569891	      0.00000000	    -57.80101303	      0.06792690	    -15.48954056	     55.20893776	    -13.89339305	    -20.56623087	     39.08536802	     87.16097520	      0.00000000	      0.00000000	     63.52642673	      0.27501045	    -21.23137344	     43.18101655	     87.54284174	      0.00000000	      0.00000000
      0.21700000	      6.98169271	      8.60279765	     -0.78259070	      0.05507289	      1.31070142	      0.01196594	     21.26942772	    -25.81369626	    -28.00455876	     46.07910886	      0.80423217	    -19.58581066	    -18.30096142	      0.00000000	     66.95858066	    -16.47455591	     -5.11662167	     93.19132873	      1.62649552	      8.61955028	      9.27144753	      0.00000000	    -58.27112085	      0.25883342	    -15.14288136	     55.27841566	    -13.96135749	    -20.40248332	     39.12160411	     87.06119570	      0.00000000	      0.00000000	     63.35097381	      0.24741075	    -21.27540863	     43.48367484	     87.42368599	      0.00000000	      0.00000000
      0.23300000	      7.20269236	      8.64759031	     -1.64790514	      0.05546408	      1.31142722	      0.01213505	     23.33082344	    -26.29253600	    -25.54466403	     52.34247659	      0.91354856	    -18.24846474	    -18.52811466	      0.00000000	     65.16366174	    -16.76586136	     -8.03385734	     88.31069459	      1.54131239	      8.23820687	      8.33255314	      0.00000000	    -58.52157080	     -0.37899233	    -14.88608154	     55.29113139	    -13.90860087	    -20.43945060	     39.31797917	     87.17472956	      0.00000000	      0.00000000	     63.12857356	      0.17925088	    -21.36601107	     43.97011487	     87.55160729	      0.00000000	      0.00000000
      0.25000000	      7.64038901	      8.07794236	     -2.45342278	      0.05585666	      1.31257999	      0.01204230	     25.42981394	    -26.34064006	    -23.41802106	     58.81621102	      1.02653654	    -16.85152862	    -18.72360058	      0.00000000	     62.40342091	    -17.24067874	    -10.45097318	     82.86924208	      1.44634112	      7.09802313	      7.99393836	      0.00000000	    -59.01669503	     -0.51223018	    -14.23245438	     55.55893852	    -13.79209499	    -20.25502487	     39.39221685	     87.15498200	      0.00000000	      0.00000000	     62.98897997	      0.04154285	    -21.63221530	     44.40419026	     87.52916570	      0.00000000	      0.00000000
